PathFileType	4	(X/Y/Z)	./resultDataOpenSim/trcMotMarkerGrf/sub09/qtm-02-05.trc
DataRate	CameraRate	NumFrames	NumMarkers	Units	OrigDataRate	OrigDataStartFrame	OrigNumFrames
250.000000	250.000000	12	24	m	250.000000	59	470
Frame#	Time	L.Toe.Tip			R.Toe.Tip			L.Ankle.Lat			R.Ankle.Lat			L.Ankle.Med			R.Ankle.Med			L.Heel			R.Heel			L.Knee.Lat			R.Knee.Lat			L.Knee.Med			R.Knee.Med			L.Thigh.Upper			R.Thigh.Upper			L.ASIS			R.ASIS			V.Sacral			L.Acromium			R.Acromium			C7			L.Elbow			R.Elbow			L.Wrist.Lat			R.Wrist.Lat
		X1	Y1	Z1	X2	Y2	Z2	X3	Y3	Z3	X4	Y4	Z4	X5	Y5	Z5	X6	Y6	Z6	X7	Y7	Z7	X8	Y8	Z8	X9	Y9	Z9	X10	Y10	Z10	X11	Y11	Z11	X12	Y12	Z12	X13	Y13	Z13	X14	Y14	Z14	X15	Y15	Z15	X16	Y16	Z16	X17	Y17	Z17	X18	Y18	Z18	X19	Y19	Z19	X20	Y20	Z20	X21	Y21	Z21	X22	Y22	Z22	X23	Y23	Z23	X24	Y24	Z24

59	0.232	-1.4497279	0.069537856	-0.0092297656	-0.67519098	0.040358611	0.1062479	-1.4786142	0.22019694	-0.066344991	-0.82267343	0.0534301	0.14216846	-1.4548669	0.21078786	0.02775828	-0.81629922	0.092619812	0.051765478	-1.5443402	0.26440193	-0.021780027	-0.88970848	0.030297378	0.093896445	-1.1186603	0.42854632	-0.089920438	-0.80277021	0.50863917	0.20108168	-1.1034002	0.41627444	0.032975864	-0.81705497	0.49516927	0.075388557	-1.0396149	0.83113058	-0.11343718	-1.0109602	0.85962483	0.25814511	-0.94425525	0.91685247	-0.060236149	-0.93813733	0.94397399	0.17900053	-1.1087982	0.9845159	0.061248874	-0.93330991	1.3858895	-0.093002105	-0.97152915	1.3860811	0.23252885	-1.0157402	1.4358062	0.069732145	-1.0284432	1.0234492	-0.17266215	-1.1145345	1.0518828	0.29815922	-0.79307908	0.88860214	-0.15002627	-0.99994891	0.80991281	0.34803148
60	0.236	-1.441096	0.073154846	-0.010909274	-0.67516153	0.040266965	0.10613616	-1.4680001	0.22470745	-0.066200053	-0.82260262	0.053429777	0.14222404	-1.4443615	0.21436426	0.027907818	-0.81620861	0.092624662	0.051774834	-1.5323977	0.26997036	-0.022226487	-0.88974185	0.030278073	0.094017777	-1.1056924	0.42786536	-0.089887307	-0.79834472	0.50848403	0.20117207	-1.0901537	0.41601024	0.033458225	-0.8133697	0.49505711	0.075353723	-1.032993	0.83157153	-0.1130457	-1.0041694	0.86063414	0.25850271	-0.93803592	0.91785626	-0.059951324	-0.93124205	0.94488447	0.17934553	-1.1024594	0.98556854	0.06178701	-0.92737983	1.3869454	-0.092801633	-0.96462506	1.3870215	0.23281759	-1.009242	1.4368894	0.070150579	-1.0225236	1.0248122	-0.17190559	-1.1074784	1.0526444	0.29878531	-0.78929942	0.88690815	-0.15019583	-0.99198353	0.81089812	0.34799151
61	0.24	-1.4317639	0.076765722	-0.012789678	-0.67514649	0.040193223	0.106073	-1.4570913	0.22914499	-0.065986773	-0.82255211	0.053428337	0.14230328	-1.433407	0.21778427	0.028009236	-0.81608014	0.092646016	0.051811979	-1.5203785	0.27506448	-0.022000642	-0.88978081	0.030253255	0.094124781	-1.0925095	0.42743747	-0.089949447	-0.79430939	0.50841272	0.20137052	-1.0771004	0.41600524	0.033977035	-0.80984645	0.49499386	0.075332935	-1.0265402	0.83212072	-0.1126976	-0.99732036	0.86167792	0.25886472	-0.93187799	0.91888665	-0.059729938	-0.92458507	0.94583191	0.17962567	-1.0961503	0.98668693	0.062315315	-0.92147782	1.3880438	-0.092630332	-0.95774224	1.3880217	0.23309449	-1.0027878	1.4381032	0.070570809	-1.0167116	1.0261601	-0.17118043	-1.1004261	1.0534492	0.29946503	-0.78560861	0.88527296	-0.15042743	-0.98397521	0.81194675	0.34792787
62	0.244	-1.4217798	0.080300789	-0.014788753	-0.6751464	0.040134622	0.10599729	-1.4458837	0.23344517	-0.065715493	-0.82252425	0.053422088	0.14240334	-1.4219062	0.2210454	0.028067446	-0.81593708	0.092685424	0.051855997	-1.5083029	0.27965787	-0.021150958	-0.88982858	0.030229774	0.094214408	-1.0791993	0.42726418	-0.089979971	-0.79043853	0.50833852	0.20158435	-1.0645056	0.41620367	0.034531699	-0.80643998	0.49496831	0.075362734	-1.0200678	0.83279194	-0.11232336	-0.99030968	0.86277998	0.25925648	-0.9258044	0.91993179	-0.059578398	-0.91803038	0.94682391	0.17984092	-1.0898762	0.98790147	0.062796264	-0.91545121	1.3891741	-0.092447188	-0.95088723	1.3890833	0.23336505	-0.99642054	1.4394729	0.070961432	-1.0110378	1.0275039	-0.17057582	-1.0933994	1.0543191	0.30014687	-0.78193163	0.88367354	-0.15067291	-0.97593877	0.81305631	0.34784313
63	0.248	-1.4111429	0.083720768	-0.01680751	-0.6751647	0.04008992	0.10590102	-1.4343857	0.23753869	-0.065380259	-0.82251426	0.053412613	0.14251382	-1.4098361	0.22412173	0.028116731	-0.81582012	0.092745569	0.051882043	-1.4961555	0.28379382	-0.019936523	-0.88989058	0.030213947	0.094282244	-1.0658213	0.42731491	-0.089860782	-0.78666756	0.50818905	0.20178561	-1.0525374	0.41656479	0.035114091	-0.80314272	0.49494734	0.075467737	-1.013412	0.83359419	-0.11186665	-0.98316952	0.86396243	0.25966899	-0.91982599	0.9210095	-0.059495461	-0.91148417	0.94787909	0.18000003	-1.0836406	0.98922095	0.063230346	-0.90927496	1.3903418	-0.092241676	-0.94404159	1.3902015	0.23362254	-0.99016357	1.4409591	0.071304844	-1.0055556	1.028856	-0.17018164	-1.0864172	1.0552742	0.30080516	-0.77826363	0.88211643	-0.15092624	-0.96789476	0.81422577	0.34772975
64	0.252	-1.3998597	0.087004498	-0.018779543	-0.67519745	0.040058332	0.10580655	-1.4226144	0.24137929	-0.064969277	-0.82252472	0.053404625	0.14261609	-1.3973151	0.2269524	0.028209308	-0.81574375	0.092823945	0.051882313	-1.4839434	0.28751857	-0.018562266	-0.88996578	0.03020921	0.094324259	-1.0524164	0.42756213	-0.089569663	-0.78309402	0.50792719	0.2019882	-1.0409642	0.41704312	0.035703108	-0.79995411	0.49489375	0.075655261	-1.0066618	0.83451495	-0.11136584	-0.97632499	0.8652015	0.26002234	-0.9139253	0.92215332	-0.059466261	-0.90489718	0.94902499	0.18011153	-1.0774448	0.99063271	0.063634518	-0.90310516	1.3915611	-0.092050138	-0.93718409	1.3913754	0.2338577	-0.98396744	1.4424878	0.071639859	-1.0002391	1.0302221	-0.16992201	-1.0794775	1.0563158	0.30144734	-0.77464396	0.8806229	-0.1512073	-0.95986481	0.81545433	0.34757411
65	0.256	-1.3879843	0.090128566	-0.020670384	-0.67523434	0.040038107	0.10573131	-1.4105818	0.24494547	-0.06449112	-0.82256504	0.053402475	0.14269616	-1.3845894	0.22947451	0.028435526	-0.81568183	0.092910168	0.051875219	-1.4716653	0.29085965	-0.017140937	-0.89004738	0.030215667	0.094339664	-1.0391222	0.42802474	-0.089142949	-0.77980723	0.50756702	0.20219172	-1.0293165	0.41758631	0.036310352	-0.79687597	0.49478637	0.075919593	-1.000096	0.83552826	-0.11092326	-0.97044328	0.86643105	0.26019824	-0.9080586	0.92338907	-0.059464498	-0.89822767	0.95027698	0.18017958	-1.0712818	0.99211525	0.064011053	-0.89713613	1.392841	-0.091923426	-0.9303174	1.3926096	0.23406898	-0.97775788	1.4440121	0.072021272	-0.99489153	1.0316023	-0.16946981	-1.0725611	1.0574294	0.30208536	-0.77110532	0.87921033	-0.15153296	-0.95186494	0.81674339	0.34737134
66	0.26	-1.3756031	0.093062821	-0.02243937	-0.67526708	0.04002508	0.10567566	-1.3982904	0.2482247	-0.063974442	-0.82264459	0.053409496	0.14275477	-1.371983	0.23166231	0.028907519	-0.8156038	0.092991784	0.051882982	-1.4593042	0.29381991	-0.01574625	-0.89012967	0.030229275	0.094332244	-1.0261213	0.42875238	-0.088633778	-0.77678957	0.50717276	0.20237715	-1.0172282	0.41816162	0.036973524	-0.79391308	0.4946275	0.076230497	-0.99384301	0.83661859	-0.11057677	-0.96576945	0.86762283	0.26015543	-0.90218297	0.9247242	-0.059464379	-0.89143459	0.95163019	0.1802155	-1.0651376	0.99365507	0.064349481	-0.89141221	1.3941801	-0.091875149	-0.92346289	1.3939063	0.23426163	-0.97151103	1.4455365	0.072456143	-0.98925803	1.0330195	-0.16843002	-1.0656516	1.0585995	0.30272099	-0.76766098	0.8778886	-0.15190935	-0.94389876	0.81809707	0.34713086
67	0.264	-1.3628064	0.095780442	-0.024029687	-0.67529387	0.040013241	0.10563366	-1.3857429	0.25120096	-0.06344687	-0.82276849	0.05342884	0.14280393	-1.3597347	0.23354596	0.029660808	-0.81551088	0.093061312	0.051908627	-1.4468233	0.29637942	-0.014441282	-0.89021384	0.030244126	0.094311131	-1.0133953	0.42976377	-0.088143969	-0.77393597	0.50681769	0.20252686	-1.0044011	0.41877739	0.037679756	-0.79106932	0.49443304	0.076545674	-0.98777318	0.83778087	-0.11029341	-0.96170537	0.86884512	0.25999773	-0.89628372	0.92615164	-0.05945308	-0.88449879	0.95307152	0.18024397	-1.0590039	0.99525257	0.064646966	-0.88581984	1.3955744	-0.091871978	-0.91664018	1.3952648	0.2344409	-0.96524801	1.4470875	0.072912996	-0.98332436	1.0345403	-0.1667053	-1.0587453	1.0598228	0.30335309	-0.76431689	0.87666293	-0.15233652	-0.93595502	0.81951904	0.34686509
68	0.268	-1.3496772	0.098257321	-0.025396604	-0.67531821	0.039997862	0.10560436	-1.37295	0.25385242	-0.062921667	-0.8229304	0.053462248	0.14285666	-1.347744	0.23520497	0.030572783	-0.81542312	0.093117496	0.051943332	-1.4341775	0.29852857	-0.013273209	-0.89031006	0.030255562	0.09429314	-1.0006939	0.43102309	-0.087826681	-0.77114697	0.50654153	0.20264275	-0.99078013	0.41948364	0.038359798	-0.78834166	0.49421901	0.076851198	-0.98172038	0.83900448	-0.11008036	-0.95723719	0.87021093	0.25990499	-0.89037912	0.92766263	-0.0594305	-0.87745275	0.95458435	0.18028822	-1.0528866	0.99691177	0.064916664	-0.8802494	1.3970259	-0.091876836	-0.90985762	1.396688	0.23460835	-0.95899427	1.4486829	0.073366706	-0.97741193	1.0362245	-0.16467658	-1.0518459	1.0611051	0.30398063	-0.76108195	0.87553738	-0.15281103	-0.92802076	0.82100967	0.34657944
69	0.272	-1.3362571	0.10047223	-0.02654354	-0.67534713	0.039980545	0.10559181	-1.3599306	0.25616043	-0.062402508	-0.82310628	0.053506242	0.14291656	-1.3354875	0.23674316	0.031387544	-0.81534714	0.093163535	0.051983664	-1.4213733	0.30030809	-0.012261188	-0.89043286	0.030260269	0.094299044	-0.98783249	0.43246856	-0.087736306	-0.76840078	0.50633594	0.20274886	-0.9768229	0.42033049	0.038981051	-0.78569924	0.49400117	0.077138939	-0.97562781	0.8402843	-0.10998012	-0.95177687	0.87177827	0.25998593	-0.88450095	0.92925765	-0.059397061	-0.870422	0.95614644	0.18035101	-1.0467973	0.99862173	0.065182742	-0.87467593	1.3985409	-0.09187761	-0.90311177	1.398179	0.23476205	-0.95276913	1.4503256	0.07380867	-0.97185123	1.0380487	-0.16291443	-1.0449545	1.0624519	0.3046015	-0.75796573	0.87451658	-0.15332546	-0.92009897	0.82256801	0.34627441
70	0.276	-1.3224739	0.10243958	-0.027541586	-0.67538623	0.039968274	0.10559962	-1.3467124	0.25812375	-0.061897344	-0.82326401	0.053550758	0.14297663	-1.3222238	0.23826397	0.031804919	-0.81527042	0.093204696	0.052031896	-1.4084778	0.30177855	-0.011392451	-0.89058356	0.030259318	0.094333557	-0.97488715	0.43403391	-0.087677209	-0.76573414	0.50616487	0.20287341	-0.96301499	0.42131811	0.039577869	-0.78309969	0.49380048	0.077372912	-0.96947572	0.84164179	-0.10996546	-0.94550068	0.87351459	0.26020485	-0.87866869	0.93094006	-0.059347226	-0.86367564	0.95773144	0.18040962	-1.0407449	1.0003487	0.065472579	-0.86910939	1.4001181	-0.091876967	-0.89639393	1.3997348	0.23490077	-0.94658601	1.4520085	0.074232998	-0.96666343	1.0399292	-0.16167538	-1.0380684	1.0638623	0.30521476	-0.7549687	0.87360355	-0.15386879	-0.91220755	0.82419362	0.34594909
